<svg xmlns="http://www.w3.org/2000/svg" width="16.207" height="15.909" viewBox="0 0 16.207 15.909">
  <path id="Icon_awesome-instagram" data-name="Icon awesome-instagram" d="M8.1,6.113a4.079,4.079,0,1,0,0,8.158,4.079,4.079,0,1,0,0-8.158Zm0,6.731a2.652,2.652,0,1,1,2.7-2.652A2.682,2.682,0,0,1,8.1,12.844Zm5.293-6.9A.969.969,0,1,1,12.424,5,.958.958,0,0,1,13.393,5.946Zm2.751.966a4.661,4.661,0,0,0-1.309-3.333,4.877,4.877,0,0,0-3.4-1.285c-1.338-.075-5.347-.075-6.685,0a4.87,4.87,0,0,0-3.4,1.281A4.676,4.676,0,0,0,.052,6.908c-.076,1.313-.076,5.25,0,6.564a4.661,4.661,0,0,0,1.309,3.333,4.883,4.883,0,0,0,3.4,1.285c1.338.075,5.347.075,6.685,0a4.845,4.845,0,0,0,3.4-1.285,4.691,4.691,0,0,0,1.309-3.333c.076-1.313.076-5.247,0-6.56Zm-1.728,7.969a2.71,2.71,0,0,1-1.54,1.512c-1.067.415-3.6.319-4.776.319s-3.713.092-4.776-.319a2.71,2.71,0,0,1-1.54-1.512c-.423-1.047-.325-3.532-.325-4.689S1.364,6.546,1.784,5.5A2.71,2.71,0,0,1,3.324,3.99c1.067-.415,3.6-.319,4.776-.319s3.713-.092,4.776.319A2.71,2.71,0,0,1,14.416,5.5c.423,1.047.325,3.532.325,4.689S14.839,13.838,14.416,14.881Z" transform="translate(0.005 -2.238)" fill="#768a9a"/>
</svg>
