<svg xmlns="http://www.w3.org/2000/svg" width="17.073" height="17.073" viewBox="0 0 17.073 17.073">
  <path id="Icon_awesome-linkedin-in" data-name="Icon awesome-linkedin-in" d="M3.822,17.074H.282V5.675h3.54ZM2.05,4.12A2.06,2.06,0,1,1,4.1,2.051,2.067,2.067,0,0,1,2.05,4.12ZM17.07,17.074H13.538V11.525c0-1.322-.027-3.018-1.84-3.018-1.84,0-2.122,1.437-2.122,2.923v5.644H6.039V5.675H9.434V7.23h.05a3.719,3.719,0,0,1,3.349-1.841c3.582,0,4.241,2.359,4.241,5.423v6.262Z" transform="translate(0 -0.001)" fill="#768a9a"/>
</svg>
