<svg xmlns="http://www.w3.org/2000/svg" width="17.837" height="14.487" viewBox="0 0 17.837 14.487">
  <path id="Icon_awesome-twitter" data-name="Icon awesome-twitter" d="M16,6.991c.011.158.011.317.011.475a10.33,10.33,0,0,1-10.4,10.4A10.331,10.331,0,0,1,0,16.227a7.563,7.563,0,0,0,.883.045A7.321,7.321,0,0,0,5.421,14.71,3.662,3.662,0,0,1,2,12.175a4.61,4.61,0,0,0,.69.057,3.866,3.866,0,0,0,.962-.124A3.656,3.656,0,0,1,.724,8.519V8.474a3.682,3.682,0,0,0,1.652.464A3.661,3.661,0,0,1,1.245,4.049,10.391,10.391,0,0,0,8.783,7.874a4.127,4.127,0,0,1-.091-.838,3.659,3.659,0,0,1,6.327-2.5,7.2,7.2,0,0,0,2.32-.883,3.646,3.646,0,0,1-1.607,2.015A7.329,7.329,0,0,0,17.837,5.1,7.858,7.858,0,0,1,16,6.991Z" transform="translate(0 -3.381)" fill="#768a9a"/>
</svg>
