<svg xmlns="http://www.w3.org/2000/svg" width="34" height="34" viewBox="0 0 34 34">
  <g id="Group_88029" data-name="Group 88029" transform="translate(-1009.5 -1637.5)">
    <g id="Component_197_3" data-name="Component 197 – 3" transform="translate(1009.5 1637.5)">
      <rect id="Rectangle_5285" data-name="Rectangle 5285" width="34" height="34" fill="rgba(255,255,255,0)"/>
      <g id="Icon_awesome-heart" data-name="Icon awesome-heart" transform="translate(5.343 5.217)" fill="rgba(232,232,232,0)" opacity="0.5">
        <path d="M 11.17314338684082 21.30544471740723 C 10.93597316741943 21.30544471740723 10.71234321594238 21.20945358276367 10.54344367980957 21.0351448059082 L 2.096303462982178 12.31297397613525 C 1.009693503379822 11.18963432312012 0.4299134910106659 9.63404369354248 0.5058234930038452 8.045304298400879 C 0.5823835134506226 6.44313383102417 1.288433432579041 4.99415397644043 2.493923425674438 3.965264081954956 C 3.428543567657471 3.168793916702271 4.582413673400879 2.747663974761963 5.830483436584473 2.747663974761963 C 7.358953475952148 2.747663974761963 8.86262321472168 3.395943880081177 9.955933570861816 4.526283740997314 L 10.81650352478027 5.413074016571045 L 11.17532348632812 5.782824039459229 L 11.53414344787598 5.413074016571045 L 12.39414310455322 4.52687406539917 C 13.49007320404053 3.396074056625366 14.99439334869385 2.747663974761963 16.52160263061523 2.747663974761963 C 17.76874351501465 2.747663974761963 18.92210388183594 3.168793916702271 19.85701370239258 3.965513944625854 C 21.06259346008301 4.994483947753906 21.76846313476562 6.44365406036377 21.84431266784668 8.045844078063965 C 21.91951370239258 9.634444236755371 21.33843421936035 11.1897144317627 20.25007438659668 12.31287384033203 L 11.80275344848633 21.03523445129395 C 11.63394355773926 21.20945358276367 11.41030311584473 21.30544471740723 11.17314338684082 21.30544471740723 Z" stroke="none"/>
        <path d="M 5.830484390258789 3.247663497924805 C 4.702882766723633 3.247663497924805 3.661163330078125 3.627483367919922 2.818513870239258 4.345573425292969 C 1.719123840332031 5.283914566040039 1.075153350830078 6.606313705444336 1.005252838134766 8.069164276123047 C 0.9359035491943359 9.520613670349121 1.464643478393555 10.94079399108887 2.455472946166992 11.96513366699219 L 10.90251350402832 20.68719482421875 C 10.99721336364746 20.78493499755859 11.10195350646973 20.80544471740723 11.17314338684082 20.80544471740723 C 11.24433326721191 20.80544471740723 11.34907341003418 20.7849235534668 11.44358348846436 20.68739318847656 L 19.8910026550293 11.96493434906006 C 20.88365364074707 10.94054412841797 21.4135627746582 9.52070426940918 21.34486389160156 8.069483757019043 C 21.2756233215332 6.606704711914062 20.63184356689453 5.28419303894043 19.5327033996582 4.346063613891602 C 18.68949317932129 3.627483367919922 17.64827346801758 3.247663497924805 16.52160263061523 3.247663497924805 C 15.12893295288086 3.247663497924805 13.75548362731934 3.840663909912109 12.75296306610107 4.875083923339844 L 11.17532348632812 6.500783920288086 L 9.596543312072754 4.873903274536133 C 8.596893310546875 3.840404510498047 7.224223136901855 3.247663497924805 5.830484390258789 3.247663497924805 M 5.830484390258789 2.24766731262207 C 7.457901000976562 2.24766731262207 9.098265647888184 2.920392990112305 10.31532382965088 4.17866325378418 L 11.17532348632812 5.064863204956055 L 12.03532314300537 4.17866325378418 C 14.23116397857666 1.912971496582031 17.78904342651367 1.546276092529297 20.18132400512695 3.584953308105469 C 22.92285346984863 5.924863815307617 23.06691360473633 10.12447357177734 20.60914421081543 12.66082382202148 L 12.1619234085083 21.38308334350586 C 11.61623382568359 21.94623374938965 10.73004531860352 21.94623565673828 10.18436336517334 21.38308334350586 L 1.737133026123047 12.66082382202148 C -0.7162666320800781 10.12447357177734 -0.5722064971923828 5.924863815307617 2.169322967529297 3.584953308105469 C 3.233034133911133 2.678472518920898 4.52751350402832 2.24766731262207 5.830484390258789 2.24766731262207 Z" stroke="none" fill="#0b3253"/>
      </g>
    </g>
  </g>
</svg>
