<svg xmlns="http://www.w3.org/2000/svg" width="34" height="34" viewBox="0 0 34 34">
  <g id="Group_88027" data-name="Group 88027" transform="translate(-1124 -1639.5)">
    <g id="Component_199_3" data-name="Component 199 – 3" transform="translate(1124 1639.5)">
      <rect id="Rectangle_5289" data-name="Rectangle 5289" width="34" height="34" fill="rgba(255,255,255,0)"/>
      <g id="Group_87606" data-name="Group 87606" transform="translate(-438.5 5)">
        <g id="Group_87608" data-name="Group 87608" transform="translate(448 0)">
          <path id="Rectangle_5287" data-name="Rectangle 5287" d="M3,0h7a5,5,0,0,1,5,5V17a3,3,0,0,1-3,3H3a3,3,0,0,1-3-3V3A3,3,0,0,1,3,0Z" fill="rgba(0,0,0,0)" stroke="#8497a8" stroke-width="1"/>
          <path id="Path_71720" data-name="Path 71720" d="M3.525,3.111H-.184V-.957" transform="translate(11 1)" fill="rgba(0,0,0,0)" stroke="#8497a8" stroke-width="1"/>
        </g>
        <path id="Path_71718" data-name="Path 71718" d="M-16155.069-19716.76s-2.055,1.791-1.452,2.055,4.6-7.855,4.088-8.537-1.84,3.652,1.742,5.205,3.039-.73.55-.252A27.464,27.464,0,0,0-16155.069-19716.76Z" transform="translate(16607.637 19729.873)" fill="rgba(0,0,0,0)" stroke="#0b3253" stroke-width="1" opacity="0.5"/>
      </g>
    </g>
  </g>
</svg>
